<?xml version="1.0" encoding="utf-8"?>
<!-- Generator: Adobe Illustrator 25.1.0, SVG Export Plug-In . SVG Version: 6.00 Build 0)  -->
<svg version="1.1" id="Layer_1" xmlns="http://www.w3.org/2000/svg" xmlns:xlink="http://www.w3.org/1999/xlink" x="0px" y="0px"
	 viewBox="0 0 612 72" style="enable-background:new 0 0 612 72;" xml:space="preserve">
<style type="text/css">
	.st0{fill:#7BC049;}
	.st1{fill:#231F20;}
</style>
<g transform="matrix(0.942465,0,0,0.942465,4.40232,15.7483)">
	<path class="st0" d="M21.5,18.3c2.2,4.1,6.2,10.5,8.9,12.5c2.8,2,5.8,3.5-0.6,0.8c-6.4-2.7-11-10.3-14.1-16.1
		C13.3,11.1,11.2,7,6.8,4C2.4,1,7.3,3.1,7.3,3.1C15.4,7.1,18.4,12.5,21.5,18.3 M13,31.4c8.8,6.9,17.2,4,21,3.6l6.9,6.8h2.5l-7.9-7.9
		c-0.1-4.7,10.8-35.2-36-35.2C4.6,16.3,4.1,24.5,13,31.4"/>
</g>
<path class="st1" d="M56.2,14h29.4v2.8H59.2v16.2h23.7v2.8H59.2v16.6h26.6v2.8H56.2V14z"/>
<path class="st1" d="M98.1,14h2.9l28.5,36V14h3v41.3h-2.3l-29.1-36.7v36.7h-3V14z"/>
<path class="st1" d="M143.6,14h3.4l16.2,38l16.2-38h3.2l-18.2,41.6h-2.7L143.6,14z"/>
<rect x="194.2" y="14" class="st1" width="3.1" height="41.3"/>
<path class="st1" d="M229.3,35.4c1.7,0,3.3-0.2,4.8-0.6c1.5-0.4,2.7-1.1,3.8-1.9c1.1-0.8,1.9-1.8,2.5-3c0.6-1.2,0.9-2.5,0.9-4v-0.1
	c0-2.8-1-5-3.1-6.6c-2.1-1.6-5-2.4-8.8-2.4h-14.1v18.6H229.3z M212.3,14h17.4c2.6,0,4.8,0.4,6.8,1.1c2,0.7,3.6,1.7,4.8,3
	c1,1,1.8,2.1,2.3,3.5c0.5,1.3,0.8,2.7,0.8,4.2v0.1c0,1.7-0.3,3.3-0.9,4.6c-0.6,1.4-1.5,2.5-2.5,3.5c-1.1,1-2.4,1.8-3.8,2.4
	c-1.5,0.6-3.1,1-4.8,1.3l13.6,17.6H242l-13.2-17.1h-0.1h-13.4v17.1h-3.1V14z"/>
<path class="st1" d="M285.3,41l-10.9-23.9L263.5,41H285.3z M273,13.7h2.9l19.2,41.6h-3.4l-5.3-11.6h-24.4L257,55.3h-3.2L273,13.7z"
	/>
<path class="st1" d="M325.1,56c-3.2,0-6.2-0.6-8.8-1.6c-2.6-1.1-4.9-2.6-6.8-4.5c-1.9-1.9-3.3-4.2-4.3-6.7c-1-2.6-1.5-5.4-1.5-8.4
	v-0.1c0-2.9,0.5-5.6,1.6-8.2c1-2.6,2.5-4.9,4.4-6.8c1.9-1.9,4.1-3.5,6.8-4.6c2.6-1.1,5.5-1.7,8.6-1.7c1.8,0,3.5,0.1,4.9,0.4
	c1.5,0.3,2.8,0.6,4.1,1.1c1.3,0.5,2.4,1.1,3.6,1.7c1.1,0.7,2.2,1.5,3.3,2.4l-4.6,5.5c-0.8-0.7-1.6-1.3-2.4-1.8
	c-0.8-0.6-1.7-1-2.6-1.4c-0.9-0.4-1.9-0.7-3-0.9c-1.1-0.2-2.3-0.3-3.6-0.3c-1.9,0-3.7,0.4-5.3,1.2c-1.6,0.8-3.1,1.8-4.2,3.2
	c-1.2,1.3-2.2,2.9-2.8,4.6c-0.7,1.8-1,3.6-1,5.6v0.1c0,2.1,0.3,4.1,1,5.9c0.7,1.8,1.6,3.4,2.9,4.7c1.2,1.3,2.7,2.3,4.4,3.1
	c1.7,0.8,3.6,1.1,5.8,1.1c2,0,3.8-0.3,5.5-0.8c1.7-0.6,3.2-1.3,4.5-2.3v-7.7h-10.6v-6.3h17.6v17.4c-1,0.9-2.2,1.7-3.4,2.5
	c-1.2,0.8-2.6,1.5-4,2.1c-1.4,0.6-3,1-4.6,1.4C328.6,55.9,326.9,56,325.1,56z"/>
<path class="st1" d="M379.2,38.9L372,22.4L365,38.9H379.2z M368.8,13.7h6.7l18.2,41.6H386l-4.2-10h-19.5l-4.2,10h-7.4L368.8,13.7z"
	/>
<path class="st1" d="M403.1,14h7.3v34.7h21.7v6.6h-29V14z"/>
<path class="st1" d="M442.1,14h7.3v34.7H471v6.6h-29V14z"/>
<path class="st1" d="M481,14h30.6v6.5h-23.4v10.7h20.7v6.5h-20.7v11.1h23.7v6.5H481V14z"/>
<path class="st1" d="M540.8,34.5c2.6,0,4.7-0.6,6.2-1.9c1.5-1.2,2.3-2.9,2.3-5.1v-0.1c0-2.2-0.7-3.9-2.2-5.1
	c-1.5-1.2-3.6-1.7-6.3-1.7h-10.6v13.9H540.8z M522.9,14h18.4c2.6,0,4.9,0.4,6.9,1.1c2,0.7,3.7,1.7,5,3c1.1,1.1,1.9,2.5,2.5,4
	c0.6,1.5,0.9,3.2,0.9,5v0.1c0,1.7-0.3,3.2-0.7,4.6c-0.5,1.4-1.2,2.6-2,3.6c-0.9,1-1.9,1.9-3.1,2.7c-1.2,0.7-2.5,1.3-4,1.7l11.1,15.6
	h-8.6l-10.2-14.4h-0.1h-9v14.4h-7.3V14z"/>
<path class="st1" d="M580.1,39l-16.4-25h8.6l11.6,18.3L595.5,14h8.3l-16.4,24.9v16.5h-7.3V39z"/>
</svg>
